<svg version="1.1" id="Layer_1" xmlns="http://www.w3.org/2000/svg" xmlns:xlink="http://www.w3.org/1999/xlink" x="0px" y="0px"
	 width="100%" viewBox="0 0 4500 4500" enable-background="new 0 0 4500 4500" xml:space="preserve">

<path fill="#FDFDFD" opacity="1.000000" stroke="none" 
	d="
M2923.833496,3975.653809 
	C2841.888428,4004.580078 2759.859131,4027.478027 2676.097900,4043.697754 
	C2630.363525,4052.553955 2584.312256,4060.002930 2538.179688,4066.493408 
	C2505.243164,4071.127197 2471.948730,4073.275391 2438.787354,4076.237305 
	C2382.298584,4081.281982 2325.651611,4080.346680 2269.032471,4080.339600 
	C2223.707275,4080.334229 2178.567627,4077.131836 2133.444092,4073.125000 
	C2082.329834,4068.586182 2031.576538,4061.653564 1981.011719,4052.953125 
	C1891.641235,4037.575928 1803.972534,4015.494385 1717.954712,3986.910645 
	C1477.814453,3907.111572 1262.595459,3783.578125 1072.457642,3616.747070 
	C900.410706,3465.789551 760.436646,3289.132324 652.753723,3087.080078 
	C572.118713,2935.779541 513.804138,2776.196045 477.321167,2608.717773 
	C463.994965,2547.542969 454.297943,2485.739258 447.010284,2423.494629 
	C435.123322,2321.966797 432.663574,2220.161377 437.402405,2118.243408 
	C444.831116,1958.473267 472.931885,1802.187134 521.210754,1649.663574 
	C584.880066,1448.518188 680.080811,1263.461548 806.355896,1094.470459 
	C868.698669,1011.038391 937.604004,933.401306 1012.924316,861.369446 
	C1140.385620,739.473022 1282.025146,637.401062 1438.118530,555.417480 
	C1567.122070,487.662018 1702.234253,435.680328 1843.511475,399.856323 
	C1913.275269,382.166168 1983.820435,368.582855 2055.185547,359.089996 
	C2112.653564,351.445709 2170.304688,346.257874 2228.223877,344.040802 
	C2285.507324,341.848053 2342.845215,341.655212 2400.053955,344.711151 
	C2561.696289,353.345520 2719.802979,381.642212 2874.088623,431.231140 
	C3084.181641,498.757202 3276.073975,600.499390 3450.306396,735.722351 
	C3504.038574,777.424194 3555.168701,822.120667 3604.069336,869.444519 
	C3750.883057,1011.523926 3871.214600,1173.287354 3965.382568,1354.503174 
	C4030.395508,1479.612915 4080.349121,1610.562378 4115.296875,1747.159302 
	C4136.113770,1828.526367 4151.137207,1910.968262 4161.041504,1994.418091 
	C4171.111816,2079.267334 4174.295898,2164.368896 4173.164551,2249.693359 
	C4172.157715,2325.698486 4165.939453,2401.362793 4155.094727,2476.554688 
	C4127.527344,2667.691650 4072.035645,2850.358887 3987.746094,3024.245117 
	C3904.891113,3195.171631 3798.518799,3349.957764 3668.744141,3488.512451 
	C3524.469727,3642.547363 3358.874756,3768.877686 3172.088379,3867.312744 
	C3092.454102,3909.279541 3010.089355,3944.977051 2923.833496,3975.653809 
M1083.347290,1085.358521 
	C1082.066162,1086.886719 1080.842651,1088.467773 1079.495850,1089.935547 
	C962.871765,1217.047363 868.145447,1358.771606 795.620789,1515.311646 
	C740.828430,1633.577759 700.519592,1756.519287 674.898254,1884.390869 
	C659.428955,1961.595093 648.995972,2039.423340 644.901672,2117.943115 
	C641.155457,2189.787354 641.500671,2261.718018 646.776001,2333.596436 
	C651.657532,2400.109863 660.196106,2466.118408 673.118225,2531.475098 
	C702.197571,2678.551514 750.023743,2819.318115 817.335632,2953.390625 
	C906.730713,3131.448975 1024.201538,3288.594482 1169.518921,3424.771484 
	C1295.367676,3542.704590 1436.156860,3639.108887 1592.023682,3713.054199 
	C1799.267700,3811.373047 2017.471802,3865.190186 2246.959229,3872.352295 
	C2334.976318,3875.099365 2422.691895,3872.039551 2510.157959,3860.977539 
	C2573.646973,3852.947754 2636.500488,3841.725342 2698.595947,3826.495605 
	C2831.054932,3794.008057 2957.671387,3745.983398 3078.253174,3682.143555 
	C3241.004150,3595.977295 3385.718506,3485.980225 3512.113037,3352.163818 
	C3630.052246,3227.299072 3726.612549,3087.529541 3801.391113,2932.747314 
	C3850.491699,2831.115479 3888.894287,2725.674316 3916.425293,2616.242188 
	C3935.458984,2540.585449 3948.857178,2463.959473 3957.119629,2386.367676 
	C3963.401855,2327.372070 3965.888184,2268.216553 3966.673340,2208.959717 
	C3966.866699,2194.343994 3965.854736,2179.704834 3965.173340,2165.086670 
	C3963.840088,2136.495117 3962.812012,2107.878418 3960.831299,2079.329346 
	C3956.123535,2011.474121 3946.135498,1944.336792 3932.459229,1877.720459 
	C3901.070557,1724.831055 3849.116943,1579.333252 3776.331787,1441.238403 
	C3655.920166,1212.781860 3491.290039,1022.414368 3283.246582,869.696838 
	C3133.820801,760.008728 2970.334717,677.964294 2793.128662,623.293030 
	C2690.385986,591.595032 2585.579102,570.426208 2478.690918,558.830383 
	C2426.991943,553.221802 2375.123779,551.559204 2323.268799,549.421265 
	C2303.365967,548.600708 2283.349121,550.009460 2263.403809,550.862793 
	C2232.153076,552.199890 2200.908447,553.744568 2169.680176,555.532959 
	C2121.083496,558.315979 2072.896973,564.945740 2024.997070,573.182495 
	C1933.003174,589.001465 1842.888184,612.231201 1754.776733,643.297791 
	C1578.577148,705.422791 1417.542480,794.800354 1271.246582,910.892029 
	C1204.837769,963.590149 1143.255005,1021.487610 1083.347290,1085.358521 
z"/>
<path fill="#000000" opacity="1.000000" stroke="none" 
	d="
M1084.315430,1084.321289 
	C1143.255005,1021.487610 1204.837769,963.590149 1271.246582,910.892029 
	C1417.542480,794.800354 1578.577148,705.422791 1754.776733,643.297791 
	C1842.888184,612.231201 1933.003174,589.001465 2024.997070,573.182495 
	C2072.896973,564.945740 2121.083496,558.315979 2169.680176,555.532959 
	C2200.908447,553.744568 2232.153076,552.199890 2263.403809,550.862793 
	C2283.349121,550.009460 2303.365967,548.600708 2323.268799,549.421265 
	C2375.123779,551.559204 2426.991943,553.221802 2478.690918,558.830383 
	C2585.579102,570.426208 2690.385986,591.595032 2793.128662,623.293030 
	C2970.334717,677.964294 3133.820801,760.008728 3283.246582,869.696838 
	C3491.290039,1022.414368 3655.920166,1212.781860 3776.331787,1441.238403 
	C3849.116943,1579.333252 3901.070557,1724.831055 3932.459229,1877.720459 
	C3946.135498,1944.336792 3956.123535,2011.474121 3960.831299,2079.329346 
	C3962.812012,2107.878418 3963.840088,2136.495117 3965.173340,2165.086670 
	C3965.854736,2179.704834 3966.866699,2194.343994 3966.673340,2208.959717 
	C3965.888184,2268.216553 3963.401855,2327.372070 3957.119629,2386.367676 
	C3948.857178,2463.959473 3935.458984,2540.585449 3916.425293,2616.242188 
	C3888.894287,2725.674316 3850.491699,2831.115479 3801.391113,2932.747314 
	C3726.612549,3087.529541 3630.052246,3227.299072 3512.113037,3352.163818 
	C3385.718506,3485.980225 3241.004150,3595.977295 3078.253174,3682.143555 
	C2957.671387,3745.983398 2831.054932,3794.008057 2698.595947,3826.495605 
	C2636.500488,3841.725342 2573.646973,3852.947754 2510.157959,3860.977539 
	C2422.691895,3872.039551 2334.976318,3875.099365 2246.959229,3872.352295 
	C2017.471802,3865.190186 1799.267700,3811.373047 1592.023682,3713.054199 
	C1436.156860,3639.108887 1295.367676,3542.704590 1169.518921,3424.771484 
	C1024.201538,3288.594482 906.730713,3131.448975 817.335632,2953.390625 
	C750.023743,2819.318115 702.197571,2678.551514 673.118225,2531.475098 
	C660.196106,2466.118408 651.657532,2400.109863 646.776001,2333.596436 
	C641.500671,2261.718018 641.155457,2189.787354 644.901672,2117.943115 
	C648.995972,2039.423340 659.428955,1961.595093 674.898254,1884.390869 
	C700.519592,1756.519287 740.828430,1633.577759 795.620789,1515.311646 
	C868.145447,1358.771606 962.871765,1217.047363 1079.495850,1089.935547 
	C1080.842651,1088.467773 1082.066162,1086.886719 1084.315430,1084.321289 
M2098.157227,1208.144287 
	C1817.120972,1541.214722 1536.084351,1874.284912 1255.056030,2207.362305 
	C1253.342285,2209.393311 1251.724487,2211.507568 1250.110107,2213.619873 
	C1249.713013,2214.139404 1249.413696,2214.777832 1249.235229,2215.408447 
	C1249.058838,2216.032471 1249.091797,2216.715332 1248.914307,2218.698975 
	C1250.199951,2220.427734 1252.079102,2222.954590 1254.550415,2226.277588 
	C1267.322144,2221.006348 1279.807007,2216.482910 1291.751587,2210.820557 
	C1363.902344,2176.617676 1435.921997,2142.138672 1507.999268,2107.781006 
	C1633.533081,2047.941528 1759.143188,1988.261841 1884.595337,1928.251953 
	C1984.834839,1880.302490 2084.885254,1831.957764 2185.023682,1783.797241 
	C2210.212402,1771.682983 2235.342529,1759.444336 2260.635498,1747.551392 
	C2283.444824,1736.826050 2307.437988,1732.448486 2332.577881,1735.766724 
	C2349.243164,1737.966309 2364.752197,1743.734741 2379.782959,1751.161011 
	C2416.178711,1769.143188 2452.577637,1787.125977 2489.190918,1804.658569 
	C2621.823242,1868.170654 2754.479980,1931.632446 2887.249756,1994.856445 
	C3024.815186,2060.364014 3162.516846,2125.586914 3300.174316,2190.901611 
	C3325.983398,2203.147217 3351.865479,2215.239258 3377.459717,2227.282471 
	C3385.172607,2219.827881 3385.445312,2219.128906 3381.766602,2214.091309 
	C3379.411133,2210.865967 3376.824463,2207.802979 3374.246338,2204.747070 
	C3274.136719,2086.082764 3174.014404,1967.429199 3073.897217,1848.771240 
	C2930.806641,1679.181519 2787.719971,1509.588867 2644.629395,1339.999268 
	C2538.494385,1214.208862 2432.364502,1088.414307 2326.179443,962.665955 
	C2322.912598,958.797302 2319.060303,955.423218 2314.960693,951.294983 
	C2242.645752,1036.940552 2171.299805,1121.438599 2098.157227,1208.144287 
M1758.509033,2960.392334 
	C1792.782959,2944.150391 1827.036987,2927.866211 1861.334717,2911.674805 
	C1996.728638,2847.756592 2132.153809,2783.905029 2267.525391,2719.939209 
	C2299.669189,2704.750488 2331.762451,2704.818604 2363.991699,2719.360840 
	C2380.375000,2726.752930 2396.808838,2734.044189 2413.041748,2741.755127 
	C2622.836182,2841.412842 2832.601318,2941.132568 3042.368408,3040.848145 
	C3149.953613,3091.989502 3257.520508,3143.169678 3365.137451,3194.244385 
	C3369.186523,3196.166016 3373.675293,3197.162109 3378.064697,3198.624512 
	C3380.376465,3195.139648 3382.153076,3192.461426 3384.291992,3189.237549 
	C3029.455322,2768.689453 2674.912354,2348.487549 2320.325928,1928.322388 
	C2319.125000,1926.899292 2317.293945,1926.008057 2315.931152,1924.997437 
	C2314.380127,1925.760986 2312.932373,1926.027954 2312.199219,1926.897461 
	C1959.914429,2344.658691 1607.677612,2762.460449 1255.462769,3180.280762 
	C1255.061890,3180.756348 1254.957397,3181.505127 1254.786865,3182.145264 
	C1254.621460,3182.766602 1254.549316,3183.412842 1254.252075,3185.082764 
	C1256.562500,3187.972900 1259.305542,3191.404297 1262.248535,3195.085938 
	C1270.424805,3191.492920 1277.794434,3188.439209 1285.008911,3185.054932 
	C1343.456177,3157.635254 1401.964966,3130.344482 1460.281616,3102.649170 
	C1558.869507,3055.829102 1657.330200,3008.741699 1758.509033,2960.392334 
z"/>
<path fill="#FEFEFE" opacity="1.000000" stroke="none" 
	d="
M2099.055664,1207.040527 
	C2171.299805,1121.438599 2242.645752,1036.940552 2314.960693,951.294983 
	C2319.060303,955.423218 2322.912598,958.797302 2326.179443,962.665955 
	C2432.364502,1088.414307 2538.494385,1214.208862 2644.629395,1339.999268 
	C2787.719971,1509.588867 2930.806641,1679.181519 3073.897217,1848.771240 
	C3174.014404,1967.429199 3274.136719,2086.082764 3374.246338,2204.747070 
	C3376.824463,2207.802979 3379.411133,2210.865967 3381.766602,2214.091309 
	C3385.445312,2219.128906 3385.172607,2219.827881 3377.459717,2227.282471 
	C3351.865479,2215.239258 3325.983398,2203.147217 3300.174316,2190.901611 
	C3162.516846,2125.586914 3024.815186,2060.364014 2887.249756,1994.856445 
	C2754.479980,1931.632446 2621.823242,1868.170654 2489.190918,1804.658569 
	C2452.577637,1787.125977 2416.178711,1769.143188 2379.782959,1751.161011 
	C2364.752197,1743.734741 2349.243164,1737.966309 2332.577881,1735.766724 
	C2307.437988,1732.448486 2283.444824,1736.826050 2260.635498,1747.551392 
	C2235.342529,1759.444336 2210.212402,1771.682983 2185.023682,1783.797241 
	C2084.885254,1831.957764 1984.834839,1880.302490 1884.595337,1928.251953 
	C1759.143188,1988.261841 1633.533081,2047.941528 1507.999268,2107.781006 
	C1435.921997,2142.138672 1363.902344,2176.617676 1291.751587,2210.820557 
	C1279.807007,2216.482910 1267.322144,2221.006348 1254.550415,2226.277588 
	C1252.079102,2222.954590 1250.199951,2220.427734 1248.914307,2218.698975 
	C1249.091797,2216.715332 1249.058838,2216.032471 1249.235229,2215.408447 
	C1249.413696,2214.777832 1249.713013,2214.139404 1250.110107,2213.619873 
	C1251.724487,2211.507568 1253.342285,2209.393311 1255.056030,2207.362305 
	C1536.084351,1874.284912 1817.120972,1541.214722 2099.055664,1207.040527 
z"/>
<path fill="#FEFEFE" opacity="1.000000" stroke="none" 
	d="
M1757.176758,2961.079590 
	C1657.330200,3008.741699 1558.869507,3055.829102 1460.281616,3102.649170 
	C1401.964966,3130.344482 1343.456177,3157.635254 1285.008911,3185.054932 
	C1277.794434,3188.439209 1270.424805,3191.492920 1262.248535,3195.085938 
	C1259.305542,3191.404297 1256.562500,3187.972900 1254.252075,3185.082764 
	C1254.549316,3183.412842 1254.621460,3182.766602 1254.786865,3182.145264 
	C1254.957397,3181.505127 1255.061890,3180.756348 1255.462769,3180.280762 
	C1607.677612,2762.460449 1959.914429,2344.658691 2312.199219,1926.897461 
	C2312.932373,1926.027954 2314.380127,1925.760986 2315.931152,1924.997437 
	C2317.293945,1926.008057 2319.125000,1926.899292 2320.325928,1928.322388 
	C2674.912354,2348.487549 3029.455322,2768.689453 3384.291992,3189.237549 
	C3382.153076,3192.461426 3380.376465,3195.139648 3378.064697,3198.624512 
	C3373.675293,3197.162109 3369.186523,3196.166016 3365.137451,3194.244385 
	C3257.520508,3143.169678 3149.953613,3091.989502 3042.368408,3040.848145 
	C2832.601318,2941.132568 2622.836182,2841.412842 2413.041748,2741.755127 
	C2396.808838,2734.044189 2380.375000,2726.752930 2363.991699,2719.360840 
	C2331.762451,2704.818604 2299.669189,2704.750488 2267.525391,2719.939209 
	C2132.153809,2783.905029 1996.728638,2847.756592 1861.334717,2911.674805 
	C1827.036987,2927.866211 1792.782959,2944.150391 1757.176758,2961.079590 
z"/>
</svg>