<svg id="Capa_1" data-name="Capa 1" xmlns="http://www.w3.org/2000/svg" width="30" height="30" viewBox="0 0 30 30"><defs><style>.cls-1{fill:#fff;}</style></defs><circle cx="15" cy="15" r="12"/><path class="cls-1" d="M18.34,16.82l.55.5L23,21a1.27,1.27,0,0,1,.32,1.6,1.22,1.22,0,0,1-1.44.62,2,2,0,0,1-.76-.52c-1.27-1.4-2.51-2.83-3.76-4.24l-.3-.33a6.46,6.46,0,0,1-5.63,1.06,6.21,6.21,0,0,1-3.68-2.66,6.49,6.49,0,0,1,9.53-8.6A6.56,6.56,0,0,1,18.34,16.82ZM13.16,7.43a5.46,5.46,0,1,0,5.45,5.49A5.45,5.45,0,0,0,13.16,7.43Z"/><path class="cls-1" d="M13.41,8.44a4.45,4.45,0,0,1,3.89,2.79c.09.25.1.47-.16.58s-.43,0-.55-.29A3.63,3.63,0,0,0,13.38,9.2c-.29,0-.61,0-.6-.41S13.13,8.43,13.41,8.44Z"/><path class="cls-1" d="M17.72,12.71a.44.44,0,0,1-.46.57c-.34,0-.38-.26-.37-.54,0-.43.21-.68.49-.53A.83.83,0,0,1,17.72,12.71Z"/></svg>