<?xml version="1.0" standalone="no"?>
<!DOCTYPE svg PUBLIC "-//W3C//DTD SVG 20010904//EN"
 "http://www.w3.org/TR/2001/REC-SVG-20010904/DTD/svg10.dtd">
<svg version="1.0" xmlns="http://www.w3.org/2000/svg"
 width="4500.000000pt" height="4500.000000pt" viewBox="0 0 4500.000000 4500.000000"
 preserveAspectRatio="xMidYMid meet">

<g transform="translate(0.000000,4500.000000) scale(0.100000,-0.100000)"
fill="#000000" stroke="none">
<path d="M19525 33053 c-148 -5 -500 -33 -673 -53 -1578 -180 -3104 -800
-4342 -1764 -324 -252 -522 -427 -831 -736 -402 -402 -685 -738 -1005 -1195
-398 -569 -761 -1258 -1009 -1914 -346 -918 -534 -1869 -564 -2852 -57 -1833
453 -3604 1473 -5119 1436 -2132 3447 -3404 6011 -3800 793 -123 1641 -136
2410 -39 1379 174 2698 688 3969 1546 l199 134 32 -33 c120 -124 398 -434
1014 -1132 2310 -2621 2741 -3108 3476 -3931 1030 -1154 1101 -1230 1292
-1382 416 -332 831 -488 1248 -470 760 32 1414 610 1587 1402 19 86 22 131 22
325 0 197 -3 238 -22 330 -72 330 -233 631 -477 889 -85 90 -1160 1045 -4140
3676 -1220 1077 -1740 1537 -2102 1858 l-201 180 58 81 c32 46 110 161 173
257 1250 1907 1744 4115 1412 6304 -281 1851 -1141 3566 -2445 4876 -1446
1452 -3378 2352 -5440 2533 -349 31 -773 42 -1125 29z m936 -1397 c639 -54
1217 -173 1795 -370 2153 -732 3861 -2435 4603 -4589 352 -1021 475 -2137 356
-3222 -144 -1309 -633 -2547 -1423 -3604 -231 -309 -457 -565 -763 -867 -2019
-1982 -5008 -2628 -7681 -1658 -2105 763 -3773 2474 -4483 4600 -476 1423
-504 2984 -80 4429 448 1525 1380 2867 2660 3828 751 564 1610 981 2520 1225
510 137 970 207 1610 246 131 8 720 -4 886 -18z"/>
<path d="M19736 30294 c-256 -50 -367 -217 -354 -528 10 -215 90 -333 272
-401 93 -35 198 -51 486 -75 1656 -138 2888 -806 3772 -2045 206 -288 421
-667 574 -1007 110 -245 167 -341 256 -424 155 -147 355 -160 583 -41 74 39
164 127 193 189 80 173 51 379 -107 758 -655 1564 -2123 2860 -3811 3363 -399
119 -796 191 -1205 217 -225 14 -574 11 -659 -6z"/>
<path d="M25293 25255 c-187 -51 -315 -271 -354 -609 -15 -131 -6 -439 16
-525 61 -248 214 -360 488 -361 317 0 544 166 612 447 27 110 17 308 -20 423
-103 319 -353 586 -589 629 -74 14 -88 13 -153 -4z"/>
</g>
</svg>
